<?xml version="1.0" encoding="UTF-8" standalone="no"?>
<svg
   xmlns:dc="http://purl.org/dc/elements/1.1/"
   xmlns:cc="http://creativecommons.org/ns#"
   xmlns:rdf="http://www.w3.org/1999/02/22-rdf-syntax-ns#"
   xmlns:svg="http://www.w3.org/2000/svg"
   xmlns="http://www.w3.org/2000/svg"
   id="2b8f80c2-0e7a-11f0-9d46-0242ac110005"
   version="1.1"
   width="1417.32283465pt"
   viewBox="0 0 1417.32283465 1984.2519685"
   height="1984.2519685pt">
  <metadata
     id="metadata33">
    <rdf:RDF>
      <cc:Work
         rdf:about="">
        <dc:format>image/svg+xml</dc:format>
        <dc:type
           rdf:resource="http://purl.org/dc/dcmitype/StillImage" />
      </cc:Work>
    </rdf:RDF>
  </metadata>
  <defs
     id="defs31" />
  <g
     id="g2" />
  <g
     id="g22">
    <path
       id="path4"
       d="M 0.0,1984.252 L 0.0,0.0 1417.3228,0.0 1417.3228,1984.252 0.0,1984.252 Z"
       style="fill:none;" />
    <path
       id="path6"
       d="M 682.0876,203.9288 L 1131.3227,521.0021 1131.3227,762.1051 1017.2596,680.0296 1017.2596,712.2065 899.0709,712.2065 899.0709,594.9849 682.0876,438.8506 682.0876,203.9288 Z"
       style="fill-rule:evenodd;fill:#ffcc00;" />
    <path
       id="path8"
       d="M 654.1706,203.9288 L 571.8396,262.0399 277.157,470.0264 277.157,711.131 376.4142,637.9698 376.4142,671.3369 517.6293,671.3369 517.6293,533.8835 571.8396,493.9261 654.1706,437.4307 654.1706,203.9288 Z"
       style="fill-rule:evenodd;fill:#007abf;" />
    <path
       id="path10"
       d="M 560.6697,288.3708 C 665.8956,234.2683 811.4536,307.5157 885.7092,451.9489 959.9712,596.3755 934.8584,757.3733 829.6326,811.479 819.1654,816.86 808.2963,820.9801 797.1419,823.8911 L 797.1419,787.1021 754.3105,787.1021 726.3905,787.1021 714.121,787.1021 714.121,824.99 C 634.6303,808.299 553.898,743.7974 504.5931,647.9041 430.3311,503.4775 455.4438,342.4732 560.6697,288.3708 Z"
       style="fill-rule:evenodd;fill:#93bf27;" />
    <path
       id="path12"
       d="M 587.4077,296.6722 C 533.8728,603.9776 754.452,569.284 801.6433,799.0976 862.2937,511.7529 647.2122,545.7027 587.4077,296.6722 Z"
       style="fill-rule:evenodd;fill:#007b3a;" />
    <path
       id="path14"
       d="M 1131.3231,521.0019 L 1048.9909,579.113 754.3087,787.1005 754.3087,1028.2041 1048.9909,810.9992 1131.3231,754.5047 1131.3231,521.0019 Z"
       style="fill-rule:evenodd;fill:#008ed1;" />
    <path
       id="path16"
       d="M 277.1569,470.0272 L 726.3926,787.1005 726.3926,1028.2041 277.1569,711.1307 277.1569,470.0272 Z"
       style="fill-rule:evenodd;fill:#ffed00;" />
    <path
       id="path18"
       d="M 249.2947,1200.4271 C 242.7092,1219.9328 229.965,1235.9073 211.0625,1248.3506 192.1598,1260.794 171.3669,1267.0157 148.6836,1267.0157 135.0251,1267.0157 121.5492,1264.5494 108.2564,1259.6169 94.9635,1254.6843 80.3294,1245.2118 64.3535,1231.1991 48.3778,1217.1864 40.3899,1195.6067 40.3899,1166.4601 40.3899,1139.3315 50.9998,1116.2385 72.2195,1097.1812 93.4391,1078.1239 118.8052,1068.5953 148.3179,1068.5953 171.0009,1068.5953 192.0379,1074.985 211.4283,1087.7646 230.8188,1100.5443 243.4407,1116.7989 249.2947,1136.529 L 194.4159,1136.529 C 183.9281,1120.3862 168.3181,1112.3149 147.5862,1112.3149 130.2689,1112.3149 116.1834,1117.5276 105.3294,1127.9532 94.4757,1138.3786 89.0489,1151.4385 89.0489,1167.1327 89.0489,1183.4997 94.7807,1196.9518 106.2442,1207.4894 117.7078,1218.0271 132.342,1223.2959 150.1471,1223.2959 159.1717,1223.2959 167.6472,1221.2779 175.5743,1217.2423 183.5011,1213.2066 189.7818,1207.6016 194.4159,1200.4271 L 249.2947,1200.4271 Z M 482.6025,1260.9621 L 437.9679,1260.9621 437.9679,1235.7392 C 430.4068,1245.3799 420.2238,1253.0028 407.419,1258.608 394.6138,1264.213 381.6259,1267.0157 368.4551,1267.0157 353.089,1267.0157 339.0645,1264.2691 326.3814,1258.7761 313.6984,1253.2831 300.8933,1243.4182 287.9663,1229.1812 275.0394,1214.9443 268.576,1194.4857 268.576,1167.8055 268.576,1154.3532 270.5882,1142.2462 274.6126,1131.4844 278.6369,1120.7226 288.0275,1107.5506 302.7837,1091.9685 317.5399,1076.3863 339.9181,1068.5953 369.9185,1068.5953 398.6992,1068.5953 421.3825,1079.3569 437.9679,1100.8805 L 437.9679,1074.6487 482.6025,1074.6487 482.6025,1260.9621 Z M 377.9672,1112.3149 C 359.9184,1112.3149 345.2841,1117.6959 334.0643,1128.4577 322.8449,1139.2193 317.235,1152.8958 317.235,1169.487 317.235,1184.7329 323.0888,1197.5124 334.796,1207.8258 346.5035,1218.1392 360.6501,1223.2959 377.2357,1223.2959 394.7967,1223.2959 409.0651,1218.0271 420.041,1207.4894 431.0168,1196.9518 436.5047,1183.6117 436.5047,1167.4691 436.5047,1151.5507 431.0776,1138.3786 420.2238,1127.9532 409.37,1117.5276 395.2846,1112.3149 377.9672,1112.3149 Z M 500.4205,1221.2779 L 590.4214,1114.3328 510.6643,1114.3328 510.6643,1074.6487 648.5928,1074.6487 648.5928,1114.3328 558.5918,1221.2779 654.8123,1221.2779 654.8123,1260.9621 500.4205,1260.9621 500.4205,1221.2779 Z M 880.4373,1260.9621 L 835.8027,1260.9621 835.8027,1235.7392 C 828.2416,1245.3799 818.0585,1253.0028 805.2535,1258.608 792.4484,1264.213 779.4605,1267.0157 766.2897,1267.0157 750.9237,1267.0157 736.899,1264.2691 724.216,1258.7761 711.533,1253.2831 698.728,1243.4182 685.8011,1229.1812 672.8741,1214.9443 666.4106,1194.4857 666.4106,1167.8055 666.4106,1154.3532 668.4228,1142.2462 672.4471,1131.4844 676.4717,1120.7226 685.862,1107.5506 700.6182,1091.9685 715.3744,1076.3863 737.7529,1068.5953 767.7531,1068.5953 796.5339,1068.5953 819.2171,1079.3569 835.8027,1100.8805 L 835.8027,1074.6487 880.4373,1074.6487 880.4373,1260.9621 Z M 775.802,1112.3149 C 757.7531,1112.3149 743.1187,1117.6959 731.8989,1128.4577 720.6794,1139.2193 715.0696,1152.8958 715.0696,1169.487 715.0696,1184.7329 720.9233,1197.5124 732.6306,1207.8258 744.3382,1218.1392 758.4846,1223.2959 775.0703,1223.2959 792.6313,1223.2959 806.8999,1218.0271 817.8756,1207.4894 828.8513,1196.9518 834.3393,1183.6117 834.3393,1167.4691 834.3393,1151.5507 828.9121,1138.3786 818.0585,1127.9532 807.2048,1117.5276 793.1191,1112.3149 775.802,1112.3149 Z M 910.6942,1074.6487 L 954.9629,1074.6487 954.9629,1091.464 C 960.5728,1083.6169 966.9142,1077.8436 973.9876,1074.1442 981.0609,1070.4449 989.4754,1068.5953 999.2318,1068.5953 L 1002.8904,1068.5953 1002.8904,1111.9787 C 991.4268,1111.9787 982.0974,1114.557 974.9022,1119.7136 967.7069,1124.8704 963.3167,1130.4754 961.7313,1136.529 960.1458,1142.5824 959.3531,1150.5417 959.3531,1160.4067 L 959.3531,1260.9621 910.6942,1260.9621 910.6942,1074.6487 Z M 1021.8058,1074.6487 L 1070.4648,1074.6487 1070.4648,1260.9621 1021.8058,1260.9621 1021.8058,1074.6487 Z M 1021.8058,1012.4321 L 1070.4648,1012.4321 1070.4648,1053.1251 1021.8058,1053.1251 1021.8058,1012.4321 Z M 1103.6488,1074.6487 L 1148.6493,1074.6487 1148.6493,1091.8002 C 1154.9909,1084.1773 1163.1008,1078.404 1172.979,1074.4806 1182.8571,1070.5569 1193.4058,1068.5953 1204.6256,1068.5953 1215.3573,1068.5953 1225.7842,1070.613 1235.9063,1074.6487 1246.0284,1078.6843 1253.5895,1083.1124 1258.5896,1087.9327 1263.5894,1092.7531 1268.1018,1097.7416 1272.1263,1102.8984 1276.1507,1108.0551 1279.0775,1115.7902 1280.9069,1126.1034 1282.7362,1136.4168 1283.6506,1149.1965 1283.6506,1164.4424 L 1283.6506,1260.9621 1234.9917,1260.9621 1234.9917,1173.1863 C 1234.9917,1161.5277 1234.5649,1152.5035 1233.7112,1146.1138 1232.8575,1139.7238 1230.6015,1133.8385 1226.9429,1128.4577 1223.2843,1123.0767 1218.5892,1119.0411 1212.8573,1116.3506 1207.1255,1113.6602 1200.967,1112.3149 1194.3815,1112.3149 1187.5522,1112.3149 1180.9667,1113.8283 1174.6251,1116.855 1168.2837,1119.8817 1163.6496,1123.5812 1160.7226,1127.9532 1157.7958,1132.3251 1155.6615,1137.5939 1154.3202,1143.7595 1152.9787,1149.9252 1152.3078,1158.9494 1152.3078,1170.8322 L 1152.3078,1176.5494 1152.3078,1260.9621 1103.6488,1260.9621 1103.6488,1074.6487 Z M 1317.2005,1074.6487 L 1365.8595,1074.6487 1365.8595,1260.9621 1317.2005,1260.9621 1317.2005,1074.6487 Z M 1317.2005,1012.4321 L 1365.8595,1012.4321 1365.8595,1053.1251 1317.2005,1053.1251 1317.2005,1012.4321 Z"
       style="fill-rule:evenodd;fill:#2d2c2b;" />
    <path
       id="path20"
       d="M 497.7406,1358.2046 L 497.7406,1303.7796 485.8745,1303.7796 485.8745,1295.7138 497.7406,1295.7138 497.7406,1275.4911 505.7482,1275.4911 505.7482,1295.7138 517.6143,1295.7138 517.6143,1303.7796 505.7482,1303.7796 505.7482,1358.2046 497.7406,1358.2046 Z M 530.1483,1358.2046 L 522.0244,1358.2046 522.0244,1295.7138 529.586,1295.7138 529.586,1302.9264 C 531.5443,1300.1539 533.6965,1298.1373 536.0231,1296.8383 538.3693,1295.5587 541.0838,1294.88 544.1861,1294.8024 L 544.2442,1303.4887 C 539.203,1303.9347 535.5967,1305.4471 533.4251,1308.0064 531.2341,1310.5657 530.1483,1314.715 530.1483,1320.4735 L 530.1483,1358.2046 Z M 602.0904,1326.5618 C 602.0904,1319.9306 599.7248,1314.1528 594.994,1309.2086 590.263,1304.2643 584.7953,1301.8019 578.6297,1301.8019 571.9211,1301.8019 566.2207,1304.2643 561.5091,1309.2086 556.7975,1314.1528 554.4321,1320.2796 554.4321,1327.5892 554.4321,1334.55 556.7782,1340.4249 561.4704,1345.214 566.1625,1350.0031 571.8047,1352.4072 578.3969,1352.4072 584.7566,1352.4072 590.3018,1349.8867 595.0134,1344.8262 599.7248,1339.7656 602.0904,1333.6775 602.0904,1326.5618 Z M 602.0904,1348.3161 C 599.5892,1351.9226 596.2155,1354.7339 591.95,1356.7892 587.6844,1358.8249 583.0892,1359.8526 578.1643,1359.8526 569.0126,1359.8526 561.3734,1356.7117 555.2853,1350.4489 549.1776,1344.1863 546.1336,1336.45 546.1336,1327.2402 546.1336,1317.8948 549.2553,1310.0811 555.4791,1303.7796 561.703,1297.4976 569.4974,1294.3565 578.8623,1294.3565 583.6708,1294.3565 588.0721,1295.3259 592.0856,1297.2842 596.0991,1299.2426 599.4341,1302.0539 602.0904,1305.7185 L 602.0904,1295.7138 609.9235,1295.7138 609.9235,1358.2046 602.0904,1358.2046 602.0904,1348.3161 Z M 673.4507,1327.5892 C 673.4507,1320.4735 671.0851,1314.3854 666.3737,1309.3637 661.6621,1304.3224 656.1169,1301.8019 649.7572,1301.8019 643.165,1301.8019 637.5228,1304.2062 632.8307,1308.9953 628.1385,1313.7844 625.7924,1319.6399 625.7924,1326.5618 625.7924,1333.8714 628.1578,1339.9982 632.8694,1344.9618 637.5811,1349.9254 643.2814,1352.4072 649.99,1352.4072 656.1556,1352.4072 661.604,1349.9254 666.3543,1344.9618 671.0851,1339.9982 673.4507,1334.2204 673.4507,1327.5892 Z M 673.2179,1305.6021 L 673.2179,1291.6808 673.2179,1275.4911 681.2838,1275.4911 681.2838,1358.2046 673.2179,1358.2046 673.2179,1348.7815 C 670.4067,1352.2521 666.9359,1354.9666 662.7674,1356.9249 658.5987,1358.8832 654.1973,1359.8526 649.5246,1359.8526 640.5087,1359.8526 632.9276,1356.6728 626.762,1350.3133 620.5769,1343.9537 617.4939,1336.1399 617.4939,1326.9108 617.4939,1317.7397 620.5379,1310.0228 626.6456,1303.7602 632.7337,1297.4976 640.3729,1294.3565 649.5246,1294.3565 654.4495,1294.3565 658.9283,1295.3065 662.9613,1297.2261 666.9941,1299.1456 670.4067,1301.9377 673.2179,1305.6021 Z M 700.1581,1288.3846 L 692.1504,1288.3846 692.1504,1275.4911 700.1581,1275.4911 700.1581,1288.3846 Z M 692.1504,1358.2046 L 692.1504,1295.7138 700.1581,1295.7138 700.1581,1358.2046 692.1504,1358.2046 Z M 711.1991,1295.7138 L 718.9742,1295.7138 718.9742,1302.8296 C 721.4366,1299.9794 724.2868,1297.8853 727.5247,1296.528 730.7628,1295.1514 734.4659,1294.4729 738.6347,1294.4729 743.2105,1294.4729 747.2822,1295.3259 750.8691,1297.0322 754.4561,1298.7385 757.2869,1301.1814 759.3615,1304.3612 760.7963,1306.591 761.824,1309.2086 762.4637,1312.2332 763.0842,1315.2385 763.3945,1319.6786 763.3945,1325.5535 L 763.3945,1358.2046 755.5031,1358.2046 755.5031,1323.2268 C 755.5031,1315.8395 754.0877,1310.4882 751.2763,1307.1532 748.4454,1303.8183 743.9279,1302.1509 737.7234,1302.1509 734.0782,1302.1509 730.8984,1302.8877 728.1452,1304.3418 725.4113,1305.796 723.2397,1307.89 721.6498,1310.6046 720.6611,1312.3107 719.9631,1314.2496 719.5752,1316.4405 719.168,1318.6122 718.9742,1322.4124 718.9742,1327.822 L 718.9742,1358.2046 711.1991,1358.2046 711.1991,1295.7138 Z M 784.8861,1363.3039 C 786.1076,1366.949 788.2987,1369.7798 791.4783,1371.8157 794.6582,1373.8515 798.5166,1374.8598 803.0731,1374.8598 810.1888,1374.8598 815.9086,1372.4944 820.1935,1367.7634 824.498,1363.013 826.6502,1356.6921 826.6502,1348.7622 L 826.6502,1347.114 C 823.6255,1351.244 820.1741,1354.3655 816.3158,1356.4595 812.438,1358.5729 808.1918,1359.62 803.519,1359.62 794.1346,1359.62 786.3404,1356.4789 780.1164,1350.2163 773.9119,1343.9537 770.8097,1336.1399 770.8097,1326.7944 770.8097,1317.5846 773.8732,1309.8677 780.0195,1303.6051 786.1464,1297.3618 793.7469,1294.2401 802.7822,1294.2401 808.0561,1294.2401 812.6125,1295.1903 816.4514,1297.0709 820.2905,1298.9711 823.703,1301.9377 826.6502,1305.9511 L 826.6502,1295.7138 834.4833,1295.7138 834.4833,1347.8509 C 834.4833,1358.7668 831.7495,1367.298 826.2818,1373.425 820.7947,1379.5712 813.2523,1382.6348 803.6353,1382.6348 796.5583,1382.6348 790.4896,1380.8897 785.4096,1377.3803 780.3298,1373.8708 777.053,1369.1788 775.5795,1363.3039 L 784.8861,1363.3039 Z M 779.3215,1326.4454 C 779.3215,1333.755 781.6482,1339.8626 786.2821,1344.7873 790.9161,1349.7122 796.5196,1352.1746 803.0731,1352.1746 809.2388,1352.1746 814.7064,1349.7122 819.4374,1344.7679 824.1684,1339.8237 826.5338,1334.0265 826.5338,1327.3566 826.5338,1320.2409 824.2071,1314.1528 819.5538,1309.1309 814.8809,1304.0898 809.394,1301.5693 803.0731,1301.5693 796.5583,1301.5693 790.9744,1303.9734 786.3015,1308.7625 781.6482,1313.5516 779.3215,1319.4458 779.3215,1326.4454 Z M 927.8308,1314.9089 C 925.3683,1310.3718 922.363,1307.0175 918.8342,1304.8266 915.286,1302.6551 911.0787,1301.5693 906.1926,1301.5693 899.7555,1301.5693 894.2878,1304.0122 889.8089,1308.8983 885.33,1313.7844 883.0809,1319.8144 883.0809,1327.0076 883.0809,1334.201 885.33,1340.2116 889.8477,1345.0395 894.3459,1349.8673 899.9106,1352.291 906.5416,1352.291 911.3888,1352.291 915.6544,1351.0888 919.3771,1348.7039 923.0804,1346.3191 925.8918,1342.9842 927.8308,1338.6605 L 936.6915,1338.6605 C 934.2679,1345.4466 930.4677,1350.6817 925.2715,1354.4044 920.0945,1358.1075 913.9676,1359.969 906.9294,1359.969 897.8747,1359.969 890.2354,1356.7504 884.0116,1350.3327 877.7877,1343.9148 874.666,1336.1787 874.666,1327.124 874.666,1317.8948 877.8265,1310.0617 884.128,1303.6438 890.4293,1297.2261 898.1073,1294.0075 907.1622,1294.0075 913.9289,1294.0075 919.9006,1295.83 925.0776,1299.4946 930.2544,1303.1397 934.1127,1308.2778 936.6915,1314.9089 L 927.8308,1314.9089 Z M 951.436,1326.8912 C 951.436,1334.104 953.7239,1340.134 958.2997,1345.0007 962.8949,1349.8673 968.5759,1352.291 975.4009,1352.291 982.09,1352.291 987.7129,1349.8673 992.2694,1345.0007 996.8063,1340.134 999.0748,1334.0653 999.0748,1326.7944 999.0748,1319.4071 996.7676,1313.3384 992.1723,1308.588 987.5771,1303.8377 981.741,1301.4529 974.664,1301.4529 968.3046,1301.4529 962.8368,1303.896 958.2803,1308.7819 953.7239,1313.668 951.436,1319.698 951.436,1326.8912 Z M 943.0212,1327.027 C 943.0212,1317.8559 946.1623,1310.0228 952.4442,1303.5082 958.7264,1296.9934 966.1716,1293.736 974.7804,1293.736 983.8157,1293.736 991.5326,1296.9353 997.9114,1303.3337 1004.2904,1309.7321 1007.4896,1317.3713 1007.4896,1326.2321 1007.4896,1335.5388 1004.3681,1343.4883 998.1248,1350.0805 991.8621,1356.6728 984.3005,1359.969 975.4009,1359.969 966.3461,1359.969 958.6875,1356.7311 952.4249,1350.2744 946.1623,1343.8179 943.0212,1336.0816 943.0212,1327.027 Z M 1064.0951,1305.5052 C 1066.635,1301.8988 1069.7954,1299.165 1073.5569,1297.2842 1077.3183,1295.4035 1081.5451,1294.4729 1086.1986,1294.4729 1094.6909,1294.4729 1100.8566,1297.0128 1104.7151,1302.1122 1108.5735,1307.2114 1110.5124,1315.3937 1110.5124,1326.678 L 1110.5124,1358.2046 1102.8343,1358.2046 1102.8343,1325.03 C 1102.8343,1316.7895 1101.4771,1310.9147 1098.7432,1307.4054 1096.0288,1303.896 1091.5693,1302.1509 1085.4036,1302.1509 1081.836,1302.1509 1078.7143,1302.8877 1075.9999,1304.3418 1073.2855,1305.796 1071.1527,1307.89 1069.5628,1310.6046 1068.6126,1312.3107 1067.9342,1314.2496 1067.5075,1316.4405 1067.1004,1318.6122 1066.8871,1322.4124 1066.8871,1327.822 L 1066.8871,1358.2046 1059.3254,1358.2046 1059.3254,1323.2268 C 1059.3254,1316.0334 1057.8712,1310.7208 1054.9434,1307.289 1052.0351,1303.8572 1047.5563,1302.1509 1041.5457,1302.1509 1037.9005,1302.1509 1034.7206,1302.8877 1031.9675,1304.3418 1029.2335,1305.796 1027.062,1307.89 1025.4721,1310.6046 1024.4834,1312.3107 1023.7853,1314.2496 1023.3974,1316.4405 1022.9903,1318.6122 1022.7964,1322.4124 1022.7964,1327.822 L 1022.7964,1358.2046 1014.9052,1358.2046 1014.9052,1295.7138 1022.7964,1295.7138 1022.7964,1302.8296 C 1025.1812,1300.0569 1027.9926,1297.9822 1031.2307,1296.5863 1034.4687,1295.1709 1038.1332,1294.4729 1042.2243,1294.4729 1046.9551,1294.4729 1051.279,1295.4617 1055.1762,1297.4587 1059.0734,1299.4559 1062.0591,1302.1315 1064.0951,1305.5052 Z M 1121.2045,1295.7138 L 1129.0958,1295.7138 1129.0958,1305.9511 C 1131.3643,1302.4223 1134.6218,1299.611 1138.8291,1297.517 1143.0559,1295.4035 1147.5541,1294.3565 1152.3238,1294.3565 1161.7664,1294.3565 1169.5802,1297.4976 1175.7653,1303.7602 1181.9502,1310.0228 1185.0526,1317.8559 1185.0526,1327.2402 1185.0526,1336.4113 1181.9891,1344.1282 1175.8815,1350.4295 1169.7547,1356.7117 1162.1154,1359.8526 1152.9637,1359.8526 1147.8837,1359.8526 1143.3081,1358.8638 1139.2364,1356.9056 1135.1647,1354.9279 1131.791,1352.0776 1129.0958,1348.3161 L 1129.0958,1352.64 1129.0958,1361.9466 1129.0958,1378.4273 1121.2045,1378.4273 1121.2045,1295.7138 Z M 1129.0958,1326.5618 C 1129.0958,1333.6775 1131.442,1339.7656 1136.134,1344.8262 1140.8263,1349.8867 1146.3715,1352.4072 1152.7311,1352.4072 1159.2846,1352.4072 1164.9073,1350.0031 1169.5995,1345.214 1174.2916,1340.4249 1176.6376,1334.55 1176.6376,1327.5892 1176.6376,1320.2796 1174.2722,1314.1528 1169.5608,1309.2086 1164.8492,1304.2643 1159.1488,1301.8019 1152.4402,1301.8019 1146.2745,1301.8019 1140.8263,1304.2837 1136.134,1309.2473 1131.442,1314.2109 1129.0958,1319.9693 1129.0958,1326.5618 Z M 1245.5744,1326.5618 C 1245.5744,1319.9306 1243.2089,1314.1528 1238.4781,1309.2086 1233.7471,1304.2643 1228.2793,1301.8019 1222.1138,1301.8019 1215.4051,1301.8019 1209.7048,1304.2643 1204.9932,1309.2086 1200.2816,1314.1528 1197.9162,1320.2796 1197.9162,1327.5892 1197.9162,1334.55 1200.2622,1340.4249 1204.9544,1345.214 1209.6465,1350.0031 1215.2887,1352.4072 1221.881,1352.4072 1228.2406,1352.4072 1233.7858,1349.8867 1238.4974,1344.8262 1243.2089,1339.7656 1245.5744,1333.6775 1245.5744,1326.5618 Z M 1245.5744,1348.3161 C 1243.0733,1351.9226 1239.6996,1354.7339 1235.434,1356.7892 1231.1684,1358.8249 1226.5732,1359.8526 1221.6484,1359.8526 1212.4967,1359.8526 1204.8574,1356.7117 1198.7693,1350.4489 1192.6617,1344.1863 1189.6176,1336.45 1189.6176,1327.2402 1189.6176,1317.8948 1192.7393,1310.0811 1198.9632,1303.7796 1205.1871,1297.4976 1212.9814,1294.3565 1222.3464,1294.3565 1227.1548,1294.3565 1231.5562,1295.3259 1235.5696,1297.2842 1239.5832,1299.2426 1242.9181,1302.0539 1245.5744,1305.7185 L 1245.5744,1295.7138 1253.4076,1295.7138 1253.4076,1358.2046 1245.5744,1358.2046 1245.5744,1348.3161 Z M 1264.1578,1295.7138 L 1271.9328,1295.7138 1271.9328,1302.8296 C 1274.3952,1299.9794 1277.2454,1297.8853 1280.4833,1296.528 1283.7214,1295.1514 1287.4245,1294.4729 1291.5933,1294.4729 1296.1691,1294.4729 1300.2408,1295.3259 1303.8277,1297.0322 1307.4147,1298.7385 1310.2455,1301.1814 1312.3202,1304.3612 1313.7549,1306.591 1314.7826,1309.2086 1315.4223,1312.2332 1316.0429,1315.2385 1316.3531,1319.6786 1316.3531,1325.5535 L 1316.3531,1358.2046 1308.4617,1358.2046 1308.4617,1323.2268 C 1308.4617,1315.8395 1307.0463,1310.4882 1304.2349,1307.1532 1301.4041,1303.8183 1296.8865,1302.1509 1290.682,1302.1509 1287.0368,1302.1509 1283.857,1302.8877 1281.1038,1304.3418 1278.3699,1305.796 1276.1984,1307.89 1274.6084,1310.6046 1273.6197,1312.3107 1272.9217,1314.2496 1272.5338,1316.4405 1272.1267,1318.6122 1271.9328,1322.4124 1271.9328,1327.822 L 1271.9328,1358.2046 1264.1578,1358.2046 1264.1578,1295.7138 Z M 1318.8822,1295.7138 L 1328.092,1295.7138 1347.4035,1346.4355 1367.6263,1295.7138 1376.9331,1295.7138 1343.1961,1378.4273 1334.6262,1378.4273 1342.9635,1358.0882 1318.8822,1295.7138 Z"
       style="fill-rule:evenodd;fill:#898a8c;" />
  </g>
  <g
     id="g24" />
  <g
     id="g26" />
</svg>
